<svg width="48" height="24" viewBox="0 0 48 24" fill="none" xmlns="http://www.w3.org/2000/svg">
<path d="M0 24V21.35C0 20.0644 0.691667 19.018 2.075 18.2108C3.45833 17.4036 5.27293 17 7.5188 17C7.9243 17 8.31422 17.0083 8.68855 17.025C9.06285 17.0417 9.43333 17.0775 9.8 17.1326C9.53333 17.7109 9.33333 18.297 9.2 18.8909C9.06667 19.4848 9 20.1045 9 20.75V24H0ZM12 24V20.75C12 19.6833 12.2917 18.7083 12.875 17.825C13.4583 16.9417 14.2833 16.1667 15.35 15.5C16.4167 14.8333 17.6917 14.3333 19.175 14C20.6583 13.6667 22.2667 13.5 24 13.5C25.7667 13.5 27.3917 13.6667 28.875 14C30.3583 14.3333 31.6333 14.8333 32.7 15.5C33.7667 16.1667 34.5833 16.9417 35.15 17.825C35.7167 18.7083 36 19.6833 36 20.75V24H12ZM39 24V20.75C39 20.088 38.9417 19.4641 38.825 18.8784C38.7083 18.2928 38.5167 17.7121 38.25 17.1363C38.6167 17.0788 38.9862 17.0417 39.3586 17.025C39.731 17.0083 40.1114 17 40.5 17C42.75 17 44.5625 17.3961 45.9375 18.1884C47.3125 18.9807 48 20.0345 48 21.35V24H39ZM15 21H33V20.7C33 19.4667 32.1583 18.4583 30.475 17.675C28.7917 16.8917 26.6333 16.5 24 16.5C21.3667 16.5 19.2083 16.8917 17.525 17.675C15.8417 18.4583 15 19.4833 15 20.75V21ZM7.47835 15.5C6.52612 15.5 5.70833 15.1573 5.025 14.4719C4.34167 13.7865 4 12.9625 4 12C4 11.0333 4.3427 10.2083 5.0281 9.525C5.71353 8.84167 6.5375 8.5 7.5 8.5C8.46667 8.5 9.29167 8.84167 9.975 9.525C10.6583 10.2083 11 11.0405 11 12.0216C11 12.9739 10.6583 13.7917 9.975 14.475C9.29167 15.1583 8.45945 15.5 7.47835 15.5ZM40.4784 15.5C39.5261 15.5 38.7083 15.1573 38.025 14.4719C37.3417 13.7865 37 12.9625 37 12C37 11.0333 37.3427 10.2083 38.0281 9.525C38.7135 8.84167 39.5375 8.5 40.5 8.5C41.4667 8.5 42.2917 8.84167 42.975 9.525C43.6583 10.2083 44 11.0405 44 12.0216C44 12.9739 43.6583 13.7917 42.975 14.475C42.2917 15.1583 41.4595 15.5 40.4784 15.5ZM24 12C22.3333 12 20.9167 11.4167 19.75 10.25C18.5833 9.08333 18 7.66667 18 6C18 4.3 18.5833 2.875 19.75 1.725C20.9167 0.575 22.3333 0 24 0C25.7 0 27.125 0.575 28.275 1.725C29.425 2.875 30 4.3 30 6C30 7.66667 29.425 9.08333 28.275 10.25C27.125 11.4167 25.7 12 24 12ZM24.0176 9C24.8725 9 25.5833 8.71082 26.15 8.13245C26.7167 7.55408 27 6.83742 27 5.98245C27 5.12748 26.7142 4.41667 26.1426 3.85C25.5709 3.28333 24.8626 3 24.0176 3C23.1725 3 22.4583 3.28582 21.875 3.85745C21.2917 4.42908 21 5.13742 21 5.98245C21 6.82748 21.2892 7.54167 21.8676 8.125C22.4459 8.70833 23.1626 9 24.0176 9Z" fill="#FE0001"/>
</svg>
