<?xml version="1.0" encoding="UTF-8"?>
<!-- Generated by Pixelmator Pro 2.4.7 -->
<svg width="5386" height="838" viewBox="0 0 5386 838" xmlns="http://www.w3.org/2000/svg" xmlns:xlink="http://www.w3.org/1999/xlink">
    <path id="path854" fill="#ffffff" fill-rule="evenodd" stroke="#1b1918" stroke-width="0.216" stroke-linecap="round" stroke-linejoin="round" d="M 4339.147461 837.888489 C 4390.882813 837.888489 4434.934082 824.675964 4470.172363 803.750183 L 4470.172363 698.064575 C 4434.934082 720.090271 4395.311523 732.202881 4358.958984 732.202881 C 4264.286133 732.202881 4193.824219 658.441589 4193.824219 554.926697 C 4193.824219 452.555176 4263.186035 378.779266 4358.958984 378.779266 C 4395.311523 378.779266 4434.934082 391.991791 4470.172363 412.917664 L 4470.172363 307.232117 C 4434.934082 287.420593 4390.882813 273.093811 4339.147461 273.093811 C 4187.210938 273.093811 4076.025879 393.106079 4076.025879 554.926697 C 4076.025879 716.790771 4187.210938 837.888489 4339.147461 837.888489 Z M 2391.569336 99.131592 L 2274.856689 99.131592 L 2274.856689 670.539795 L 2391.569336 670.539795 Z M 2724.067139 721.175598 L 2274.856689 721.175598 L 2274.856689 825.775757 L 2724.067139 825.775757 Z M 3063.149414 273.093811 C 3019.098145 273.093811 2978.375244 284.106567 2946.451172 301.718506 L 2946.451172 416.231567 C 2977.275391 395.29129 3017.998291 379.879181 3062.064209 379.879181 C 3160.036377 379.879181 3231.583496 453.640472 3231.583496 558.240662 L 3231.583496 777.325195 C 3302.059814 733.288269 3350.510498 652.913452 3350.510498 557.140869 C 3350.510498 396.405579 3222.784912 273.093811 3063.149414 273.093811 Z M 2895.800781 333.657074 C 2825.324463 377.69397 2777.988037 458.068787 2777.988037 554.926697 C 2777.988037 715.690857 2905.713867 837.888489 3064.249268 837.888489 C 3109.371582 837.888489 3149.023438 826.875671 3180.947754 809.263794 L 3180.947754 695.850464 C 3150.123291 715.690857 3110.48584 731.103088 3066.43457 731.103088 C 2968.462402 731.103088 2895.800781 657.341675 2895.800781 552.741455 Z M 3713.818115 837.888489 C 3740.243164 837.888489 3763.339844 833.489197 3783.180176 823.576172 L 3783.180176 715.690857 C 3763.339844 724.489563 3739.128906 731.103088 3714.917969 731.103088 C 3645.541504 731.103088 3592.720459 683.766663 3592.720459 607.791199 L 3592.720459 285.206421 L 3477.107422 285.206421 L 3477.107422 598.978088 C 3477.107422 745.401001 3579.479004 837.888489 3713.818115 837.888489 Z M 3832.716309 801.53595 C 3902.063721 769.611755 3948.314697 696.964783 3948.314697 598.978088 L 3948.314697 285.206421 L 3832.716309 285.206421 Z M 4520.808105 825.775757 L 4637.506836 825.775757 L 4637.506836 0.059509 L 4520.808105 0.059509 Z"/>
    <path id="path856" fill="#e30016" fill-rule="evenodd" stroke="#1b1918" stroke-width="0.216" stroke-linecap="round" stroke-linejoin="round" d="M 1548.12561 593.464355 L 1900.420654 593.464355 C 1903.734497 579.166565 1909.248291 550.54187 1909.248291 520.817383 C 1909.248291 378.779266 1803.562622 273.093811 1659.310303 273.093811 C 1501.889038 273.093811 1379.691528 397.505463 1379.691528 556.02655 C 1379.691528 715.690857 1503.003296 837.888489 1670.32312 837.888489 C 1756.226074 837.888489 1828.873291 804.864502 1886.122803 750.914551 L 1831.087524 671.639587 C 1785.936157 711.262573 1736.38562 735.502502 1673.637085 735.502502 C 1567.937134 735.502502 1494.175659 667.240295 1494.175659 553.84137 C 1494.175659 444.841766 1563.552246 371.080475 1654.939941 371.080475 C 1729.801147 371.080475 1792.5354 419.531067 1793.635254 503.190979 L 1548.12561 503.190979 Z"/>
    <path id="path858" fill="#c7002e" fill-rule="evenodd" stroke="#1b1918" stroke-width="0.216" stroke-linecap="round" stroke-linejoin="round" d="M 2079.018555 659.374756 C 2028.015747 659.374756 1989.759888 697.630554 1989.759888 748.633362 C 1989.759888 797.509155 2028.015747 837.891968 2079.018555 837.891968 C 2127.894287 837.891968 2166.150146 797.509155 2166.150146 748.633362 C 2166.150146 697.630554 2127.894287 659.374756 2079.018555 659.374756 Z"/>
    <path id="path860" fill="#e30016" fill-rule="evenodd" stroke="#1b1918" stroke-width="0.216" stroke-linecap="round" stroke-linejoin="round" d="M 5152.412598 837.884583 L 5035.711426 837.884583 L 5035.711426 345.187073 L 5152.412598 345.187073 Z"/>
    <path id="path862" fill="#e30016" fill-rule="evenodd" stroke="#1b1918" stroke-width="0.216" stroke-linecap="round" stroke-linejoin="round" d="M 4918.917969 837.884583 L 4802.217285 837.884583 L 4802.217285 116.188782 L 4918.917969 116.188782 Z"/>
    <path id="path1" fill="#ffffff" fill-rule="evenodd" stroke="none" d="M 467 838 L 584 838 L 584 116 L 467 116 Z"/>
    <path id="path864" fill="#e30016" fill-rule="evenodd" stroke="#1b1918" stroke-width="0.216" stroke-linecap="round" stroke-linejoin="round" d="M 5385.935059 837.884583 L 5269.233887 837.884583 L 5269.233887 417.278168 L 5385.935059 417.278168 Z"/>
    <path id="path866" fill="#ffffff" fill-rule="evenodd" stroke="#1b1918" stroke-width="0.216" stroke-linecap="round" stroke-linejoin="round" d="M 233.630707 837.884583 L 350.331696 837.884583 L 350.331696 345.187073 L 233.630707 345.187073 Z"/>
    <path id="M" fill="#e30016" fill-rule="evenodd" stroke="none" visibility="hidden" d="M 1323.085571 840.665344 L 1323.085571 116 L 1117.384521 116 L 993.871033 610.314697 L 871.750549 116 L 665.585144 116 L 665.585144 840.665344 L 793.27771 840.665344 L 793.27771 270.226196 L 928.399597 840.665344 L 1060.735474 840.665344 L 1195.393066 270.226196 L 1195.393066 840.665344 Z"/>
    <text id="B" xml:space="preserve" x="659" y="810.577598" font-family="Arial" font-size="985.197163" font-weight="700" fill="#e30016">B</text>
    <path id="path870" fill="#ffffff" fill-rule="evenodd" stroke="#1b1918" stroke-width="0.216" stroke-linecap="round" stroke-linejoin="round" d="M 0.108 837.884583 L 116.808998 837.884583 L 116.808998 417.278168 L 0.108 417.278168 Z"/>
    <path id="path872" fill="#ffffff" fill-rule="evenodd" stroke="#1b1918" stroke-width="0.216" stroke-linecap="round" stroke-linejoin="round" d="M 3060.383789 486.432373 C 3017.501709 486.432373 2985.329834 518.604248 2985.329834 561.486389 C 2985.329834 602.578796 3017.501709 636.540283 3060.383789 636.540283 C 3101.462402 636.540283 3133.648193 602.578796 3133.648193 561.486389 C 3133.648193 518.604248 3101.462402 486.432373 3060.383789 486.432373 Z"/>
</svg>
