<svg role="img" width="5386.043" height="838.04852" viewBox="0 0 5386.043 838.04852" xmlns="http://www.w3.org/2000/svg" xmlns:svg="http://www.w3.org/2000/svg">
                    <defs id="defs878"></defs>
                    <path d="m 4339.1473,837.937 c 51.7357,0 95.787,-13.2125 131.0252,-34.1383 V 698.1131 c -35.2382,22.0257 -74.8612,34.1383 -111.2137,34.1383 -94.6727,0 -165.1346,-73.7613 -165.1346,-177.2762 0,-102.3715 69.362,-176.1474 165.1346,-176.1474 36.3525,0 75.9755,13.2125 111.2137,34.1384 V 307.2806 c -35.2382,-19.8115 -79.2895,-34.1383 -131.0252,-34.1383 -151.9366,0 -263.1213,120.0123 -263.1213,281.8329 0,161.8641 111.1847,282.9618 263.1213,282.9618 z M 2391.5694,99.1801 h -116.7128 v 571.4082 h 116.7128 z m 332.4978,622.044 h -449.2106 v 104.6002 h 449.2106 z m 339.0823,-448.0818 c -44.0513,0 -84.7742,11.0128 -116.6984,28.6247 v 114.5131 c 30.8244,-20.9403 71.5472,-36.3524 115.613,-36.3524 97.9723,0 169.5195,73.7613 169.5195,178.3615 v 219.0845 c 70.4763,-44.0369 118.927,-124.4117 118.927,-220.1843 0,-160.7353 -127.7257,-284.0471 -287.3611,-284.0471 z m -167.3487,60.5633 c -70.4763,44.0369 -117.8127,124.4117 -117.8127,221.2696 0,160.7642 127.7257,282.9618 286.2612,282.9618 45.1222,0 84.7742,-11.0128 116.6984,-28.6247 V 695.899 c -30.8243,19.8404 -70.4618,35.2526 -114.5132,35.2526 -97.9722,0 -170.6337,-73.7614 -170.6337,-178.3616 z m 818.0174,504.2314 c 26.425,0 49.5216,-4.3993 69.362,-14.3123 V 715.7394 c -19.8404,8.7987 -44.0513,15.4122 -68.2622,15.4122 -69.3765,0 -122.1975,-47.3364 -122.1975,-123.3119 V 285.2549 h -115.613 v 313.7717 c 0,146.4229 102.3715,238.9104 236.7107,238.9104 z m 118.898,-36.3525 c 69.3476,-31.9242 115.5986,-104.5712 115.5986,-202.5579 V 285.2549 h -115.5986 z m 688.0921,24.2398 h 116.6984 V 0.108 h -116.6984 z" style="fill:#ffffff;fill-rule:evenodd;stroke:#1b1918;stroke-width:0.216;stroke-linecap:butt;stroke-linejoin:miter;stroke-dasharray:none" id="path854"></path>
                    <path d="m 1223.7608,825.8243 h 133.2104 l -184.9606,-253.2227 -117.8127,23.1255 z m 324.3648,-232.3114 h 352.2948 c 3.3139,-14.2978 8.8276,-42.9225 8.8276,-72.647 0,-142.0381 -105.6856,-247.7236 -249.9377,-247.7236 -157.4213,0 -279.6188,124.4117 -279.6188,282.9328 0,159.6643 123.3118,281.8619 290.6316,281.8619 85.903,0 158.55,-33.024 215.7994,-86.9739 l -55.0352,-79.275 c -45.1512,39.623 -94.7017,63.8629 -157.4502,63.8629 -105.7,0 -179.4614,-68.2622 -179.4614,-181.6611 0,-108.9996 69.3765,-182.7609 160.7642,-182.7609 74.8612,0 137.5952,48.4506 138.6951,132.1105 H 1548.1256 Z M 766.8658,825.8243 H 883.5642 V 202.6949 h 147.5372 c 82.56,0 127.6967,50.6359 127.6967,119.9979 0,68.2477 -45.1367,118.898 -127.6967,118.898 h -96.8869 v 103.4859 h 97.9867 c 147.5227,0 246.6093,-92.473 246.6093,-223.4982 0,-132.0961 -99.0866,-222.3984 -246.6093,-222.3984 H 766.8658 Z" style="fill:#e30016;fill-rule:evenodd;stroke:#1b1918;stroke-width:0.216;stroke-linecap:butt;stroke-linejoin:miter;stroke-dasharray:none" id="path856"></path>
                    <path d="m 2079.0185,659.4233 c -51.0028,0 -89.2586,38.2558 -89.2586,89.2586 0,48.8758 38.2558,89.2586 89.2586,89.2586 48.8758,0 87.1316,-40.3828 87.1316,-89.2586 0,-51.0028 -38.2558,-89.2586 -87.1316,-89.2586 z" style="fill:#c7002e;fill-rule:evenodd;stroke:#1b1918;stroke-width:0.216;stroke-linecap:butt;stroke-linejoin:miter;stroke-dasharray:none" id="path858"></path>
                    <path d="m 5152.4124,837.9331 h -116.701 V 345.2356 h 116.701 z" style="fill:#e30016;fill-rule:evenodd;stroke:#1b1918;stroke-width:0.216;stroke-linecap:butt;stroke-linejoin:miter;stroke-dasharray:none" id="path860"></path>
                    <path d="m 4918.9181,837.9331 h -116.701 V 116.2373 h 116.701 z" style="fill:#e30016;fill-rule:evenodd;stroke:#1b1918;stroke-width:0.216;stroke-linecap:butt;stroke-linejoin:miter;stroke-dasharray:none" id="path862"></path>
                    <path d="m 5385.9351,837.9331 h -116.701 V 417.3267 h 116.701 z" style="fill:#e30016;fill-rule:evenodd;stroke:#1b1918;stroke-width:0.216;stroke-linecap:butt;stroke-linejoin:miter;stroke-dasharray:none" id="path864"></path>
                    <path d="m 233.6307,837.9331 h 116.701 V 345.2356 h -116.701 z" style="fill:#ffffff;fill-rule:evenodd;stroke:#1b1918;stroke-width:0.216;stroke-linecap:butt;stroke-linejoin:miter;stroke-dasharray:none" id="path866"></path>
                    <path d="m 467.1249,837.9331 h 116.701 V 116.2373 h -116.701 z" style="fill:#ffffff;fill-rule:evenodd;stroke:#1b1918;stroke-width:0.216;stroke-linecap:butt;stroke-linejoin:miter;stroke-dasharray:none" id="path868"></path>
                    <path d="M 0.108,837.9331 H 116.809 V 417.3267 H 0.108 Z" style="fill:#ffffff;fill-rule:evenodd;stroke:#1b1918;stroke-width:0.216;stroke-linecap:butt;stroke-linejoin:miter;stroke-dasharray:none" id="path870"></path>
                    <path d="m 3060.3839,486.4809 c -42.8821,0 -75.054,32.1719 -75.054,75.054 0,41.0924 32.1719,75.0539 75.054,75.0539 41.0785,0 73.2643,-33.9615 73.2643,-75.0539 0,-42.8821 -32.1858,-75.054 -73.2643,-75.054 z" style="fill:#ffffff;fill-rule:evenodd;stroke:#1b1918;stroke-width:0.216;stroke-linecap:butt;stroke-linejoin:miter;stroke-dasharray:none" id="path872"></path>
                  </svg>