<svg width="5386" height="838" viewBox="0 0 5386 838" fill="none" xmlns="http://www.w3.org/2000/svg">
<g clip-path="url(#clip0_0_1)">
<path fill-rule="evenodd" clip-rule="evenodd" d="M4339.15 837.888C4390.88 837.888 4434.93 824.676 4470.17 803.75V698.065C4434.93 720.09 4395.31 732.203 4358.96 732.203C4264.29 732.203 4193.82 658.442 4193.82 554.927C4193.82 452.555 4263.19 378.779 4358.96 378.779C4395.31 378.779 4434.93 391.992 4470.17 412.918V307.232C4434.93 287.421 4390.88 273.094 4339.15 273.094C4187.21 273.094 4076.03 393.106 4076.03 554.927C4076.03 716.791 4187.21 837.888 4339.15 837.888ZM2391.57 99.1316H2274.86V670.54H2391.57V99.1316ZM2724.07 721.176H2274.86V825.776H2724.07V721.176ZM3063.15 273.094C3019.1 273.094 2978.38 284.107 2946.45 301.719V416.232C2977.28 395.291 3018 379.879 3062.06 379.879C3160.04 379.879 3231.58 453.64 3231.58 558.241V777.325C3302.06 733.288 3350.51 652.913 3350.51 557.141C3350.51 396.406 3222.78 273.094 3063.15 273.094ZM2895.8 333.657C2825.32 377.694 2777.99 458.069 2777.99 554.927C2777.99 715.691 2905.71 837.888 3064.25 837.888C3109.37 837.888 3149.02 826.876 3180.95 809.264V695.85C3150.12 715.691 3110.49 731.103 3066.43 731.103C2968.46 731.103 2895.8 657.342 2895.8 552.741V333.657ZM3713.82 837.888C3740.24 837.888 3763.34 833.489 3783.18 823.576V715.691C3763.34 724.49 3739.13 731.103 3714.92 731.103C3645.54 731.103 3592.72 683.767 3592.72 607.791V285.206H3477.11V598.978C3477.11 745.401 3579.48 837.888 3713.82 837.888ZM3832.72 801.536C3902.06 769.612 3948.31 696.965 3948.31 598.978V285.206H3832.72V801.536ZM4520.81 825.776H4637.51V0.0595093H4520.81V825.776Z" fill="white" stroke="#1B1918" stroke-width="0.216" stroke-linecap="round" stroke-linejoin="round"/>
<path fill-rule="evenodd" clip-rule="evenodd" d="M1548.13 593.464H1900.42C1903.73 579.167 1909.25 550.542 1909.25 520.817C1909.25 378.779 1803.56 273.094 1659.31 273.094C1501.89 273.094 1379.69 397.505 1379.69 556.027C1379.69 715.691 1503 837.888 1670.32 837.888C1756.23 837.888 1828.87 804.865 1886.12 750.915L1831.09 671.64C1785.94 711.263 1736.39 735.503 1673.64 735.503C1567.94 735.503 1494.18 667.24 1494.18 553.841C1494.18 444.842 1563.55 371.08 1654.94 371.08C1729.8 371.08 1792.54 419.531 1793.64 503.191H1548.13V593.464Z" fill="#E30016" stroke="#1B1918" stroke-width="0.216" stroke-linecap="round" stroke-linejoin="round"/>
<path fill-rule="evenodd" clip-rule="evenodd" d="M2079.02 659.375C2028.02 659.375 1989.76 697.631 1989.76 748.633C1989.76 797.509 2028.02 837.892 2079.02 837.892C2127.89 837.892 2166.15 797.509 2166.15 748.633C2166.15 697.631 2127.89 659.375 2079.02 659.375Z" fill="#E30016" stroke="#1B1918" stroke-width="0.216" stroke-linecap="round" stroke-linejoin="round"/>
<path fill-rule="evenodd" clip-rule="evenodd" d="M5152.41 837.885H5035.71V345.187H5152.41V837.885Z" fill="#E30016" stroke="#1B1918" stroke-width="0.216" stroke-linecap="round" stroke-linejoin="round"/>
<path fill-rule="evenodd" clip-rule="evenodd" d="M4918.92 837.885H4802.22V116.189H4918.92V837.885Z" fill="#E30016" stroke="#1B1918" stroke-width="0.216" stroke-linecap="round" stroke-linejoin="round"/>
<path fill-rule="evenodd" clip-rule="evenodd" d="M467 838H584V116H467V838Z" fill="white"/>
<path fill-rule="evenodd" clip-rule="evenodd" d="M5385.94 837.885H5269.23V417.278H5385.94V837.885Z" fill="#E30016" stroke="#1B1918" stroke-width="0.216" stroke-linecap="round" stroke-linejoin="round"/>
<path fill-rule="evenodd" clip-rule="evenodd" d="M233.631 837.885H350.332V345.187H233.631V837.885Z" fill="white" stroke="#1B1918" stroke-width="0.216" stroke-linecap="round" stroke-linejoin="round"/>
<path fill-rule="evenodd" clip-rule="evenodd" d="M0.10791 837.885H116.809V417.278H0.10791V837.885Z" fill="white" stroke="#1B1918" stroke-width="0.216" stroke-linecap="round" stroke-linejoin="round"/>
<path fill-rule="evenodd" clip-rule="evenodd" d="M3060.38 486.432C3017.5 486.432 2985.33 518.604 2985.33 561.486C2985.33 602.579 3017.5 636.54 3060.38 636.54C3101.46 636.54 3133.65 602.579 3133.65 561.486C3133.65 518.604 3101.46 486.432 3060.38 486.432Z" fill="white" stroke="#1B1918" stroke-width="0.216" stroke-linecap="round" stroke-linejoin="round"/>
<path d="M862.34 838V337.639V203.893L770.294 116H745V838H862.34Z" fill="#E30016"/>
<path d="M1101.66 838H1219V116H1193.35L980.343 316.571L921.341 260.232V398.502L980.343 459.364L1101.66 337.639V838Z" fill="#E30016"/>
</g>
<defs>
<clipPath id="clip0_0_1">
<rect width="5386" height="838" fill="white"/>
</clipPath>
</defs>
</svg>
