<svg width="63" height="61" viewBox="0 0 63 61" fill="none" xmlns="http://www.w3.org/2000/svg">
<path d="M63 30.5C63 47.3447 48.897 61 31.5 61C14.103 61 0 47.3447 0 30.5C0 13.6553 14.103 0 31.5 0C48.897 0 63 13.6553 63 30.5Z" fill="#0472B0"/>
<path d="M42.6264 18.3793L17.6264 28.8793C16.8264 29.2153 16.9598 30.0193 17.1264 30.3793C17.1264 30.3793 17.4264 31.0793 20.6264 31.8793C23.6264 32.3793 25.6264 32.3793 26.6264 31.8793C29.7931 29.546 36.6264 24.8793 37.6264 24.3793C37.6264 24.3793 39.1264 23.8793 38.6264 24.8793C36.6264 26.546 32.2264 30.3793 30.6264 32.3793C29.1264 33.8793 29.4598 35.2126 30.1264 35.8793C31.6264 36.8793 35.4264 39.3793 38.6264 41.3793C42.6264 42.8793 42.1264 40.3793 42.6264 39.8793C43.1264 39.3793 45.6264 22.8793 45.6264 19.8793C46.0264 17.4793 43.7931 17.8793 42.6264 18.3793Z" fill="#D9D9D9"/>
</svg>
